<svg width="58" height="37" viewBox="0 0 58 37" fill="none" xmlns="http://www.w3.org/2000/svg">
<path d="M0.639205 18.7273C0.639205 15.3182 1.07008 12.0985 1.93182 9.06818C2.79356 6.03788 4.02936 3.19697 5.6392 0.545453L7.94034 0.545453C7.24905 1.66288 6.61458 2.92708 6.03693 4.33807C5.46875 5.74905 4.97633 7.25473 4.55966 8.85511C4.14299 10.4555 3.82102 12.0937 3.59375 13.7699C3.36648 15.4366 3.25284 17.089 3.25284 18.7273C3.25284 20.9148 3.4517 23.1212 3.84943 25.3466C4.24716 27.572 4.7964 29.6837 5.49716 31.6818C6.20739 33.6799 7.02178 35.4223 7.94034 36.9091H5.6392C4.02936 34.2481 2.79356 31.4025 1.93182 28.3722C1.07008 25.3419 0.639205 22.1269 0.639205 18.7273ZM31.6229 31L29.9467 29.3381L39.8331 19.4659L15.1172 19.4659V17.0795L39.8331 17.0795L29.9467 7.20739L31.6229 5.54545L44.3501 18.2727L31.6229 31ZM57.7557 18.7273C57.7557 22.1364 57.3248 25.3561 56.4631 28.3864C55.6013 31.4167 54.3655 34.2576 52.7557 36.9091H50.4545C51.1458 35.7917 51.7756 34.5275 52.3438 33.1165C52.9214 31.7055 53.4186 30.1998 53.8352 28.5994C54.2519 26.9991 54.5739 25.3608 54.8011 23.6847C55.0284 22.0085 55.142 20.3561 55.142 18.7273C55.142 16.5398 54.9432 14.3333 54.5455 12.108C54.1477 9.88257 53.5938 7.77083 52.8835 5.77273C52.1828 3.77462 51.3731 2.0322 50.4545 0.545453H52.7557C54.3655 3.20644 55.6013 6.05208 56.4631 9.08239C57.3248 12.1127 57.7557 15.3277 57.7557 18.7273Z" fill="black"/>
</svg>
